0
SECTION
2
HEADER
9
$INSUNITS
70
4
9
$ACADVER
1
AC1014
9
$HANDSEED
5
FFFF
0
ENDSEC
0
SECTION
2
TABLES
0
TABLE
2
VPORT
5
8
100
AcDbSymbolTable
0
ENDTAB
0
TABLE
2
LTYPE
5
5
100
AcDbSymbolTable
0
LTYPE
5
14
100
AcDbSymbolTableRecord
100
AcDbLinetypeTableRecord
2
BYBLOCK
70
0
0
LTYPE
5
15
100
AcDbSymbolTableRecord
100
AcDbLinetypeTableRecord
2
BYLAYER
70
0
0
ENDTAB
0
TABLE
2
LAYER
5
2
100
AcDbSymbolTable
70
2
0
LAYER
5
50
100
AcDbSymbolTableRecord
100
AcDbLayerTableRecord
2
0
70
0
6
CONTINUOUS
0
ENDTAB
0
TABLE
2
STYLE
5
3
100
AcDbSymbolTable
70
1
0
STYLE
5
11
100
AcDbSymbolTableRecord
100
AcDbTextStyleTableRecord
2
STANDARD
70
0
0
ENDTAB
0
TABLE
2
VIEW
5
6
100
AcDbSymbolTable
70
0
0
ENDTAB
0
TABLE
2
UCS
5
7
100
AcDbSymbolTable
70
0
0
ENDTAB
0
TABLE
2
APPID
5
9
100
AcDbSymbolTable
70
2
0
APPID
5
12
100
AcDbSymbolTableRecord
100
AcDbRegAppTableRecord
2
ACAD
70
0
0
ENDTAB
0
TABLE
2
DIMSTYLE
5
A
100
AcDbSymbolTable
70
1
0
ENDTAB
0
TABLE
2
BLOCK_RECORD
5
1
100
AcDbSymbolTable
70
1
0
BLOCK_RECORD
5
1F
100
AcDbSymbolTableRecord
100
AcDbBlockTableRecord
2
*MODEL_SPACE
0
BLOCK_RECORD
5
1B
100
AcDbSymbolTableRecord
100
AcDbBlockTableRecord
2
*PAPER_SPACE
0
ENDTAB
0
ENDSEC
0
SECTION
2
BLOCKS
0
BLOCK
5
20
100
AcDbEntity
100
AcDbBlockBegin
2
*MODEL_SPACE
0
ENDBLK
5
21
100
AcDbEntity
100
AcDbBlockEnd
0
BLOCK
5
1C
100
AcDbEntity
100
AcDbBlockBegin
2
*PAPER_SPACE
0
ENDBLK
5
1D
100
AcDbEntity
100
AcDbBlockEnd
0
ENDSEC
0
SECTION
2
ENTITIES
0
CIRCLE
5
100
100
AcDbEntity
8
0
100
AcDbCircle
10
35.749999999999218
20
70.749999999996504
30
0
40
2.1499999999999986
210
0
220
0
230
1
0
CIRCLE
5
101
100
AcDbEntity
8
0
100
AcDbCircle
10
35.749999999999218
20
-0.75000000000343903
30
0
40
2.1499999999999986
210
0
220
0
230
1
0
CIRCLE
5
102
100
AcDbEntity
8
0
100
AcDbCircle
10
-35.750000000000774
20
70.749999999996504
30
0
40
2.1499999999999986
210
0
220
0
230
1
0
CIRCLE
5
103
100
AcDbEntity
8
0
100
AcDbCircle
10
-35.750000000000774
20
-0.75000000000343903
30
0
40
2.1499999999999986
210
0
220
0
230
1
0
CIRCLE
5
104
100
AcDbEntity
8
0
100
AcDbCircle
10
-1.1235457009206584e-12
20
34.999999999995666
30
0
40
39.000000000000725
210
0
220
0
230
1
0
LWPOLYLINE
5
105
100
AcDbEntity
8
0
100
AcDbPolyline
90
52
70
1
43
0.0
10
-57.199999999999996
20
90
10
-40.857142857142804
20
90
10
-40.857142857142804
20
82.199999999999989
10
-24.514285714285606
20
82.199999999999989
10
-24.514285714285599
20
90
10
-8.1714285714285815
20
90
10
-8.1714285714285815
20
82.199999999999989
10
8.1714285714286028
20
82.199999999999989
10
8.171428571428601
20
90
10
24.514285714285702
20
90
10
24.514285714285702
20
82.199999999999989
10
40.857142857142904
20
82.199999999999989
10
40.857142857142897
20
90
10
57.199999999999996
20
90
10
57.199999999999996
20
64.285714285714008
10
65.000000000000014
20
64.285714285714022
10
65.000000000000014
20
38.571428571429003
10
57.199999999999996
20
38.571428571429003
10
57.199999999999996
20
12.857142857142989
10
65.000000000000014
20
12.857142857142989
10
65.000000000000014
20
-12.8571428571429
10
57.199999999999996
20
-12.857142857142909
10
57.199999999999996
20
-38.571428571428612
10
65.000000000000014
20
-38.571428571428612
10
65.000000000000014
20
-64.285714285714306
10
57.199999999999996
20
-64.285714285714306
10
57.199999999999996
20
-90
10
40.857142857142897
20
-90.000000000000014
10
40.857142857142897
20
-82.199999999999989
10
24.514285714285702
20
-82.200000000000003
10
24.514285714285702
20
-90
10
8.1714285714286028
20
-90.000000000000014
10
8.171428571428601
20
-82.199999999999989
10
-8.1714285714285815
20
-82.200000000000003
10
-8.1714285714285815
20
-90
10
-24.514285714285599
20
-90
10
-24.514285714285599
20
-82.199999999999989
10
-40.857142857142804
20
-82.200000000000003
10
-40.857142857142804
20
-90
10
-57.199999999999996
20
-90
10
-57.199999999999996
20
-64.285714285714306
10
-65
20
-64.285714285714306
10
-65
20
-38.571428571428612
10
-57.199999999999996
20
-38.571428571428612
10
-57.199999999999996
20
-12.8571428571429
10
-65
20
-12.857142857142909
10
-65
20
12.857142857142989
10
-57.199999999999996
20
12.857142857142989
10
-57.199999999999996
20
38.571428571429003
10
-65
20
38.571428571429003
10
-65
20
64.285714285714008
10
-57.199999999999996
20
64.285714285714022
0
ENDSEC
0
SECTION
2
OBJECTS
0
DICTIONARY
5
C
100
AcDbDictionary
3
ACAD_GROUP
350
D
3
ACAD_MLINESTYLE
350
17
0
DICTIONARY
5
D
100
AcDbDictionary
0
DICTIONARY
5
1A
330
C
100
AcDbDictionary
0
DICTIONARY
5
17
100
AcDbDictionary
0
ENDSEC
0
EOF
