0
SECTION
2
HEADER
9
$INSUNITS
70
4
9
$ACADVER
1
AC1014
9
$HANDSEED
5
FFFF
0
ENDSEC
0
SECTION
2
TABLES
0
TABLE
2
VPORT
5
8
100
AcDbSymbolTable
0
ENDTAB
0
TABLE
2
LTYPE
5
5
100
AcDbSymbolTable
0
LTYPE
5
14
100
AcDbSymbolTableRecord
100
AcDbLinetypeTableRecord
2
BYBLOCK
70
0
0
LTYPE
5
15
100
AcDbSymbolTableRecord
100
AcDbLinetypeTableRecord
2
BYLAYER
70
0
0
ENDTAB
0
TABLE
2
LAYER
5
2
100
AcDbSymbolTable
70
2
0
LAYER
5
50
100
AcDbSymbolTableRecord
100
AcDbLayerTableRecord
2
0
70
0
6
CONTINUOUS
0
ENDTAB
0
TABLE
2
STYLE
5
3
100
AcDbSymbolTable
70
1
0
STYLE
5
11
100
AcDbSymbolTableRecord
100
AcDbTextStyleTableRecord
2
STANDARD
70
0
0
ENDTAB
0
TABLE
2
VIEW
5
6
100
AcDbSymbolTable
70
0
0
ENDTAB
0
TABLE
2
UCS
5
7
100
AcDbSymbolTable
70
0
0
ENDTAB
0
TABLE
2
APPID
5
9
100
AcDbSymbolTable
70
2
0
APPID
5
12
100
AcDbSymbolTableRecord
100
AcDbRegAppTableRecord
2
ACAD
70
0
0
ENDTAB
0
TABLE
2
DIMSTYLE
5
A
100
AcDbSymbolTable
70
1
0
ENDTAB
0
TABLE
2
BLOCK_RECORD
5
1
100
AcDbSymbolTable
70
1
0
BLOCK_RECORD
5
1F
100
AcDbSymbolTableRecord
100
AcDbBlockTableRecord
2
*MODEL_SPACE
0
BLOCK_RECORD
5
1B
100
AcDbSymbolTableRecord
100
AcDbBlockTableRecord
2
*PAPER_SPACE
0
ENDTAB
0
ENDSEC
0
SECTION
2
BLOCKS
0
BLOCK
5
20
100
AcDbEntity
100
AcDbBlockBegin
2
*MODEL_SPACE
0
ENDBLK
5
21
100
AcDbEntity
100
AcDbBlockEnd
0
BLOCK
5
1C
100
AcDbEntity
100
AcDbBlockBegin
2
*PAPER_SPACE
0
ENDBLK
5
1D
100
AcDbEntity
100
AcDbBlockEnd
0
ENDSEC
0
SECTION
2
ENTITIES
0
CIRCLE
5
100
100
AcDbEntity
8
0
100
AcDbCircle
10
91.099999999999852
20
31.645415793997866
30
0
40
1.6000000000000001
210
0
220
-0
230
1
0
CIRCLE
5
101
100
AcDbEntity
8
0
100
AcDbCircle
10
91.099999999999852
20
-1.0402984917163423
30
0
40
1.6000000000000001
210
0
220
-0
230
1
0
CIRCLE
5
102
100
AcDbEntity
8
0
100
AcDbCircle
10
91.099999999999852
20
-33.726012777430633
30
0
40
1.6000000000000001
210
0
220
-0
230
1
0
CIRCLE
5
103
100
AcDbEntity
8
0
100
AcDbCircle
10
54.285714285714832
20
-62.140298491716337
30
0
40
1.6000000000000001
210
0
220
-0
230
1
0
CIRCLE
5
104
100
AcDbEntity
8
0
100
AcDbCircle
10
1.4210854715202004e-13
20
-62.140298491716337
30
0
40
1.6000000000000001
210
0
220
-0
230
1
0
CIRCLE
5
105
100
AcDbEntity
8
0
100
AcDbCircle
10
-54.285714285714121
20
-62.140298491716337
30
0
40
1.6000000000000001
210
0
220
-0
230
1
0
CIRCLE
5
106
100
AcDbEntity
8
0
100
AcDbCircle
10
-91.099999999999852
20
-32.054584206002033
30
0
40
1.6000000000000001
210
0
220
-0
230
1
0
CIRCLE
5
107
100
AcDbEntity
8
0
100
AcDbCircle
10
-91.099999999999852
20
2.8597015082836643
30
0
40
1.6000000000000001
210
0
220
-0
230
1
0
CIRCLE
5
108
100
AcDbEntity
8
0
100
AcDbCircle
10
-91.099999999999852
20
37.773987222569367
30
0
40
1.6000000000000001
210
0
220
-0
230
1
0
CIRCLE
5
109
100
AcDbEntity
8
0
100
AcDbCircle
10
-48.157142857142659
20
60.059701508283666
30
0
40
1.6000000000000001
210
0
220
-0
230
1
0
CIRCLE
5
110
100
AcDbEntity
8
0
100
AcDbCircle
10
3.9000000000001478
20
60.059701508283666
30
0
40
1.6000000000000001
210
0
220
-0
230
1
0
CIRCLE
5
111
100
AcDbEntity
8
0
100
AcDbCircle
10
55.957142857142863
20
60.059701508283666
30
0
40
1.6000000000000001
210
0
220
-0
230
1
0
LWPOLYLINE
5
112
100
AcDbEntity
8
0
100
AcDbPolyline
90
48
70
1
43
0.0
10
94.999999999999858
20
-9.2117270631449344
10
94.999999999999858
20
7.131130079712249
10
87.199999999999847
20
7.131130079712249
10
87.199999999999847
20
23.47398722256926
10
94.999999999999858
20
23.473987222569267
10
94.999999999999858
20
39.816844365426462
10
87.199999999999818
20
39.816844365426462
10
87.199999999999847
20
56.159701508283668
10
68.971428571428845
20
56.159701508283668
10
68.971428571428845
20
63.959701508283672
10
94.999999999999858
20
63.959701508283672
10
94.999999999999844
20
72.15903759002687
42
0.41421356237309503
10
76.999999999999844
20
90.159037590026855
10
-76.999999999999858
20
90.159037590026855
42
0.41421356237309503
10
-94.999999999999858
20
72.15903759002687
10
-94.999999999999858
20
63.959701508283672
10
-61.171428571428415
20
63.959701508283672
10
-61.171428571428415
20
56.159701508283668
10
-87.199999999999847
20
56.159701508283668
10
-87.199999999999847
20
46.502558651140767
10
-94.999999999999858
20
46.50255865114076
10
-94.999999999999858
20
29.045415793997968
10
-87.199999999999847
20
29.045415793997968
10
-87.199999999999847
20
11.588272936855118
10
-94.999999999999858
20
11.58827293685512
10
-94.999999999999858
20
-5.868869920287791
10
-87.199999999999847
20
-5.868869920287791
10
-87.199999999999847
20
-23.326012777430535
10
-94.999999999999858
20
-23.326012777430527
10
-94.999999999999858
20
-40.783155634573419
10
-87.199999999999861
20
-40.783155634573433
10
-87.199999999999847
20
-58.240298491716317
10
-67.857142857142748
20
-58.240298491716317
10
-67.857142857142748
20
-66.040298491716328
10
-94.999999999999858
20
-66.040298491716342
10
-94.999999999999744
20
-72.159037590026841
42
0.41421356237309492
10
-76.999999999999758
20
-90.159037590026841
10
76.999999999999844
20
-90.159037590026827
42
0.41421356237309503
10
94.999999999999858
20
-72.159037590026841
10
94.999999999999858
20
-66.040298491716356
10
67.857142857142833
20
-66.040298491716342
10
67.857142857142833
20
-58.240298491716338
10
87.199999999999847
20
-58.240298491716338
10
87.199999999999847
20
-41.897441348859218
10
94.999999999999858
20
-41.897441348859232
10
94.999999999999858
20
-25.55458420600203
10
87.199999999999847
20
-25.554584206002033
10
87.199999999999847
20
-9.2117270631449415
0
LWPOLYLINE
5
113
100
AcDbEntity
8
0
100
AcDbPolyline
90
4
70
1
43
0.0
10
42.942857142857264
20
56.159701508283675
10
42.942857142857264
20
63.959701508283679
10
16.914285714285946
20
63.959701508283672
10
16.914285714285946
20
56.159701508283668
0
LWPOLYLINE
5
114
100
AcDbEntity
8
0
100
AcDbPolyline
90
4
70
1
43
0.0
10
-9.1142857142856428
20
56.159701508283675
10
-9.1142857142856393
20
63.959701508283679
10
-35.142857142856862
20
63.959701508283672
10
-35.142857142856855
20
56.159701508283668
0
LWPOLYLINE
5
115
100
AcDbEntity
8
0
100
AcDbPolyline
90
4
70
1
43
0.0
10
-40.714285714285552
20
-66.040298491716342
10
-40.714285714285552
20
-58.240298491716331
10
-13.571428571428461
20
-58.240298491716331
10
-13.571428571428461
20
-66.040298491716342
0
LWPOLYLINE
5
116
100
AcDbEntity
8
0
100
AcDbPolyline
90
4
70
1
43
0.0
10
13.571428571428736
20
-66.040298491716342
10
13.571428571428736
20
-58.240298491716331
10
40.714285714285751
20
-58.240298491716331
10
40.714285714285751
20
-66.040298491716356
0
CIRCLE
5
117
100
AcDbEntity
8
0
100
AcDbCircle
10
79.999999999999844
20
-80.159037590026827
30
0
40
3
210
0
220
-0
230
1
0
CIRCLE
5
118
100
AcDbEntity
8
0
100
AcDbCircle
10
79.999999999999844
20
80.159037590026884
30
0
40
3
210
0
220
-0
230
1
0
CIRCLE
5
119
100
AcDbEntity
8
0
100
AcDbCircle
10
-79.999999999999957
20
80.159037590026884
30
0
40
3
210
0
220
-0
230
1
0
CIRCLE
5
120
100
AcDbEntity
8
0
100
AcDbCircle
10
-79.999999999999844
20
-80.159037590026827
30
0
40
3
210
0
220
-0
230
1
0
ENDSEC
0
SECTION
2
OBJECTS
0
DICTIONARY
5
C
100
AcDbDictionary
3
ACAD_GROUP
350
D
3
ACAD_MLINESTYLE
350
17
0
DICTIONARY
5
D
100
AcDbDictionary
0
DICTIONARY
5
1A
330
C
100
AcDbDictionary
0
DICTIONARY
5
17
100
AcDbDictionary
0
ENDSEC
0
EOF
