0
SECTION
2
HEADER
9
$INSUNITS
70
4
9
$ACADVER
1
AC1014
9
$HANDSEED
5
FFFF
0
ENDSEC
0
SECTION
2
TABLES
0
TABLE
2
VPORT
5
8
100
AcDbSymbolTable
0
ENDTAB
0
TABLE
2
LTYPE
5
5
100
AcDbSymbolTable
0
LTYPE
5
14
100
AcDbSymbolTableRecord
100
AcDbLinetypeTableRecord
2
BYBLOCK
70
0
0
LTYPE
5
15
100
AcDbSymbolTableRecord
100
AcDbLinetypeTableRecord
2
BYLAYER
70
0
0
ENDTAB
0
TABLE
2
LAYER
5
2
100
AcDbSymbolTable
70
2
0
LAYER
5
50
100
AcDbSymbolTableRecord
100
AcDbLayerTableRecord
2
0
70
0
6
CONTINUOUS
0
ENDTAB
0
TABLE
2
STYLE
5
3
100
AcDbSymbolTable
70
1
0
STYLE
5
11
100
AcDbSymbolTableRecord
100
AcDbTextStyleTableRecord
2
STANDARD
70
0
0
ENDTAB
0
TABLE
2
VIEW
5
6
100
AcDbSymbolTable
70
0
0
ENDTAB
0
TABLE
2
UCS
5
7
100
AcDbSymbolTable
70
0
0
ENDTAB
0
TABLE
2
APPID
5
9
100
AcDbSymbolTable
70
2
0
APPID
5
12
100
AcDbSymbolTableRecord
100
AcDbRegAppTableRecord
2
ACAD
70
0
0
ENDTAB
0
TABLE
2
DIMSTYLE
5
A
100
AcDbSymbolTable
70
1
0
ENDTAB
0
TABLE
2
BLOCK_RECORD
5
1
100
AcDbSymbolTable
70
1
0
BLOCK_RECORD
5
1F
100
AcDbSymbolTableRecord
100
AcDbBlockTableRecord
2
*MODEL_SPACE
0
BLOCK_RECORD
5
1B
100
AcDbSymbolTableRecord
100
AcDbBlockTableRecord
2
*PAPER_SPACE
0
ENDTAB
0
ENDSEC
0
SECTION
2
BLOCKS
0
BLOCK
5
20
100
AcDbEntity
100
AcDbBlockBegin
2
*MODEL_SPACE
0
ENDBLK
5
21
100
AcDbEntity
100
AcDbBlockEnd
0
BLOCK
5
1C
100
AcDbEntity
100
AcDbBlockBegin
2
*PAPER_SPACE
0
ENDBLK
5
1D
100
AcDbEntity
100
AcDbBlockEnd
0
ENDSEC
0
SECTION
2
ENTITIES
0
LWPOLYLINE
5
100
100
AcDbEntity
8
0
100
AcDbPolyline
90
8
70
1
43
0.0
10
-27.399999469518661
20
58.999999999999993
10
-27.399999469518654
20
68
42
0.41421356237309609
10
-30.000000000000004
20
70.600000530481353
10
-39
20
70.600000530481367
42
0.41421356237309503
10
-41.600000530481353
20
68
10
-41.600000530481353
20
58.999999999999993
42
0.41421356237309404
10
-39
20
56.399999469518661
10
-30.000000000000004
20
56.399999469518661
42
0.41421356237309404
0
LWPOLYLINE
5
101
100
AcDbEntity
8
0
100
AcDbPolyline
90
8
70
1
43
0.0
10
-42.000000000000014
20
49.999999999999993
10
-42.000000000000014
20
41
42
0.41421356237309681
10
-39
20
38.000000000000007
10
-30
20
38.000000000000014
42
0.41421356237309631
10
-26.999999999999996
20
41.000000000000014
10
-26.999999999999996
20
50
42
0.41421356237309681
10
-30.000000000000004
20
53.000000000000007
10
-39
20
53.000000000000007
42
0.41421356237309725
0
LWPOLYLINE
5
102
100
AcDbEntity
8
0
100
AcDbPolyline
90
52
70
1
43
0.0
10
-47.542857142857088
20
82.200000000000003
10
-30.085714285714293
20
82.200000000000003
10
-30.085714285714289
20
90
10
-12.628571428571444
20
90
10
-12.628571428571442
20
82.199999999999989
10
4.8285714285714665
20
82.200000000000003
10
4.8285714285714665
20
90
10
22.28571428571421
20
90.000000000000014
10
22.28571428571421
20
82.199999999999989
10
39.742857142857112
20
82.200000000000003
10
39.742857142857105
20
90
10
57.200000000000003
20
90.000000000000014
10
57.200000000000003
20
64.285714285714306
10
65.000000000000014
20
64.285714285714306
10
65.000000000000014
20
38.571428571428612
10
57.200000000000003
20
38.571428571428612
10
57.200000000000003
20
12.8571428571429
10
65.000000000000014
20
12.857142857142909
10
65.000000000000014
20
-12.857142857142989
10
57.200000000000003
20
-12.857142857142989
10
57.200000000000003
20
-38.571428571429003
10
65.000000000000014
20
-38.571428571429003
10
65.000000000000014
20
-64.285714285714008
10
57.200000000000003
20
-64.285714285714008
10
57.200000000000003
20
-90
10
39.742857142857098
20
-90
10
39.742857142857105
20
-82.199999999999989
10
22.28571428571421
20
-82.199999999999989
10
22.28571428571421
20
-90
10
4.8285714285714683
20
-90
10
4.8285714285714674
20
-82.199999999999989
10
-12.628571428571444
20
-82.199999999999989
10
-12.628571428571442
20
-90
10
-30.085714285714289
20
-90
10
-30.085714285714289
20
-82.199999999999989
10
-47.542857142857088
20
-82.199999999999989
10
-47.542857142857088
20
-90
10
-64.999999999999986
20
-90
10
-64.999999999999986
20
-64.285714285714008
10
-57.199999999999989
20
-64.285714285714008
10
-57.199999999999989
20
-38.571428571429003
10
-64.999999999999986
20
-38.571428571429003
10
-64.999999999999986
20
-12.857142857142989
10
-57.199999999999989
20
-12.857142857142989
10
-57.199999999999989
20
12.8571428571429
10
-64.999999999999986
20
12.857142857142909
10
-64.999999999999986
20
38.571428571428612
10
-57.199999999999989
20
38.571428571428612
10
-57.199999999999989
20
64.285714285714306
10
-64.999999999999986
20
64.285714285714306
10
-64.999999999999986
20
90
10
-47.542857142857088
20
90
0
CIRCLE
5
103
100
AcDbEntity
8
0
100
AcDbCircle
10
1.4499999999985291
20
16.450000000003875
30
0
40
2.8000000000000003
210
0
220
0
230
1
0
CIRCLE
5
104
100
AcDbEntity
8
0
100
AcDbCircle
10
48.549999999998519
20
63.550000000003877
30
0
40
2.8000000000000025
210
0
220
0
230
1
0
CIRCLE
5
105
100
AcDbEntity
8
0
100
AcDbCircle
10
1.4499999999985291
20
63.550000000003877
30
0
40
2.8000000000000003
210
0
220
0
230
1
0
CIRCLE
5
106
100
AcDbEntity
8
0
100
AcDbCircle
10
48.549999999998519
20
16.450000000003875
30
0
40
2.8000000000000025
210
0
220
0
230
1
0
CIRCLE
5
107
100
AcDbEntity
8
0
100
AcDbCircle
10
24.999999999998536
20
40.000000000003951
30
0
40
19
210
0
220
0
230
1
0
CIRCLE
5
108
100
AcDbEntity
8
0
100
AcDbCircle
10
1.8318679906315083e-14
20
-35
30
0
40
26
210
0
220
-0
230
1
0
CIRCLE
5
109
100
AcDbEntity
8
0
100
AcDbCircle
10
1.8318679906315083e-14
20
-65
30
0
40
1.6000000000000001
210
0
220
-0
230
1
0
CIRCLE
5
110
100
AcDbEntity
8
0
100
AcDbCircle
10
30.000000000000014
20
-35
30
0
40
1.6000000000000001
210
0
220
-0
230
1
0
CIRCLE
5
111
100
AcDbEntity
8
0
100
AcDbCircle
10
-0.087991243764302118
20
-5.0001290412605037
30
0
40
1.6000000000000001
210
0
220
-0
230
1
0
CIRCLE
5
112
100
AcDbEntity
8
0
100
AcDbCircle
10
-29.999999999999993
20
-35
30
0
40
1.6000000000000001
210
0
220
-0
230
1
0
ENDSEC
0
SECTION
2
OBJECTS
0
DICTIONARY
5
C
100
AcDbDictionary
3
ACAD_GROUP
350
D
3
ACAD_MLINESTYLE
350
17
0
DICTIONARY
5
D
100
AcDbDictionary
0
DICTIONARY
5
1A
330
C
100
AcDbDictionary
0
DICTIONARY
5
17
100
AcDbDictionary
0
ENDSEC
0
EOF
