0
SECTION
2
HEADER
9
$INSUNITS
70
4
9
$ACADVER
1
AC1014
9
$HANDSEED
5
FFFF
0
ENDSEC
0
SECTION
2
TABLES
0
TABLE
2
VPORT
5
8
100
AcDbSymbolTable
0
ENDTAB
0
TABLE
2
LTYPE
5
5
100
AcDbSymbolTable
0
LTYPE
5
14
100
AcDbSymbolTableRecord
100
AcDbLinetypeTableRecord
2
BYBLOCK
70
0
0
LTYPE
5
15
100
AcDbSymbolTableRecord
100
AcDbLinetypeTableRecord
2
BYLAYER
70
0
0
ENDTAB
0
TABLE
2
LAYER
5
2
100
AcDbSymbolTable
70
2
0
LAYER
5
50
100
AcDbSymbolTableRecord
100
AcDbLayerTableRecord
2
0
70
0
6
CONTINUOUS
0
ENDTAB
0
TABLE
2
STYLE
5
3
100
AcDbSymbolTable
70
1
0
STYLE
5
11
100
AcDbSymbolTableRecord
100
AcDbTextStyleTableRecord
2
STANDARD
70
0
0
ENDTAB
0
TABLE
2
VIEW
5
6
100
AcDbSymbolTable
70
0
0
ENDTAB
0
TABLE
2
UCS
5
7
100
AcDbSymbolTable
70
0
0
ENDTAB
0
TABLE
2
APPID
5
9
100
AcDbSymbolTable
70
2
0
APPID
5
12
100
AcDbSymbolTableRecord
100
AcDbRegAppTableRecord
2
ACAD
70
0
0
ENDTAB
0
TABLE
2
DIMSTYLE
5
A
100
AcDbSymbolTable
70
1
0
ENDTAB
0
TABLE
2
BLOCK_RECORD
5
1
100
AcDbSymbolTable
70
1
0
BLOCK_RECORD
5
1F
100
AcDbSymbolTableRecord
100
AcDbBlockTableRecord
2
*MODEL_SPACE
0
BLOCK_RECORD
5
1B
100
AcDbSymbolTableRecord
100
AcDbBlockTableRecord
2
*PAPER_SPACE
0
ENDTAB
0
ENDSEC
0
SECTION
2
BLOCKS
0
BLOCK
5
20
100
AcDbEntity
100
AcDbBlockBegin
2
*MODEL_SPACE
0
ENDBLK
5
21
100
AcDbEntity
100
AcDbBlockEnd
0
BLOCK
5
1C
100
AcDbEntity
100
AcDbBlockBegin
2
*PAPER_SPACE
0
ENDBLK
5
1D
100
AcDbEntity
100
AcDbBlockEnd
0
ENDSEC
0
SECTION
2
ENTITIES
0
CIRCLE
5
100
100
AcDbEntity
8
0
100
AcDbCircle
10
24.61227136213909
20
-20.352152529528826
30
0
40
2.8000000000000025
210
0
220
-0
230
1
0
CIRCLE
5
101
100
AcDbEntity
8
0
100
AcDbCircle
10
71.712271362139091
20
-67.452152529528817
30
0
40
2.7999999999999936
210
0
220
-0
230
1
0
CIRCLE
5
102
100
AcDbEntity
8
0
100
AcDbCircle
10
71.712271362139091
20
-20.352152529528826
30
0
40
2.7999999999999936
210
0
220
-0
230
1
0
CIRCLE
5
103
100
AcDbEntity
8
0
100
AcDbCircle
10
24.61227136213909
20
-67.452152529528817
30
0
40
2.8000000000000025
210
0
220
-0
230
1
0
CIRCLE
5
104
100
AcDbEntity
8
0
100
AcDbCircle
10
48.162271362139002
20
-43.902152529528571
30
0
40
18.999999999999993
210
0
220
-0
230
1
0
LWPOLYLINE
5
105
100
AcDbEntity
8
0
100
AcDbPolyline
90
4
70
1
43
0.0
10
-24.65539630100535
20
-63.053469156175709
10
-24.655396301005361
20
-23.905831704586909
42
0.99999999999999989
10
-28.655396301005357
20
-23.905831704586909
10
-28.655396301005354
20
-63.053469156175822
42
0.99999999999999989
0
LWPOLYLINE
5
106
100
AcDbEntity
8
0
100
AcDbPolyline
90
4
70
1
43
0.0
10
-33.587329723090555
20
-63.053469156175709
10
-33.587329723090562
20
-23.905831704586909
42
0.99999999999999989
10
-37.587329723090662
20
-23.905831704586909
10
-37.587329723090555
20
-63.053469156175822
42
0.99999999999999989
0
LWPOLYLINE
5
107
100
AcDbEntity
8
0
100
AcDbPolyline
90
4
70
1
43
0.0
10
-42.519263145175856
20
-23.905831704586909
10
-42.519263145175891
20
-63.053469156175822
42
-0.99999999999999989
10
-46.519263145175891
20
-63.053469156175822
10
-46.519263145175927
20
-23.905831704586909
42
-0.99999999999999989
0
LWPOLYLINE
5
108
100
AcDbEntity
8
0
100
AcDbPolyline
90
4
70
1
43
0.0
10
-51.45119656726115
20
-63.053469156175822
10
-51.451196567261157
20
-23.905831704586909
42
0.99999999999999989
10
-55.451196567261157
20
-23.905831704586909
10
-55.45119656726115
20
-63.053469156175822
42
0.99999999999999989
0
LWPOLYLINE
5
109
100
AcDbEntity
8
0
100
AcDbPolyline
90
4
70
1
43
0.0
10
-60.383129989346415
20
-63.053469156175822
10
-60.383129989346422
20
-23.905831704586909
42
0.99999999999999989
10
-64.383129989346429
20
-23.905831704586909
10
-64.383129989346457
20
-63.053469156175822
42
0.99999999999999989
0
LWPOLYLINE
5
110
100
AcDbEntity
8
0
100
AcDbPolyline
90
52
70
1
43
0.0
10
16.914285714285938
20
89.999999999999986
10
42.942857142857243
20
89.999999999999986
10
42.942857142857243
20
82.199999999999974
10
68.971428571428831
20
82.199999999999974
10
68.971428571428831
20
89.999999999999986
10
94.999999999999844
20
89.999999999999986
10
94.999999999999844
20
64.285714285713993
10
87.199999999999847
20
64.285714285713993
10
87.199999999999847
20
38.571428571428982
10
94.999999999999844
20
38.571428571428982
10
94.999999999999844
20
12.857142857142971
10
87.199999999999847
20
12.857142857142971
10
87.199999999999847
20
-12.857142857142918
10
94.999999999999844
20
-12.857142857142918
10
94.999999999999844
20
-38.571428571428626
10
87.199999999999847
20
-38.571428571428619
10
87.199999999999847
20
-64.28571428571432
10
94.999999999999844
20
-64.28571428571432
10
94.999999999999844
20
-90.000000000000014
10
68.971428571428831
20
-90.000000000000014
10
68.971428571428831
20
-82.200000000000003
10
42.942857142857243
20
-82.200000000000017
10
42.942857142857243
20
-90.000000000000014
10
16.914285714285938
20
-90.000000000000014
10
16.914285714285938
20
-82.200000000000003
10
-9.114285714285657
20
-82.200000000000017
10
-9.114285714285657
20
-90.000000000000014
10
-35.142857142856862
20
-90.000000000000014
10
-35.142857142856855
20
-82.200000000000003
10
-61.171428571428415
20
-82.200000000000017
10
-61.171428571428415
20
-90.000000000000014
10
-87.199999999999847
20
-90.000000000000014
10
-87.199999999999861
20
-64.28571428571432
10
-94.999999999999858
20
-64.28571428571432
10
-94.999999999999858
20
-38.571428571428626
10
-87.199999999999847
20
-38.571428571428619
10
-87.199999999999861
20
-12.857142857142918
10
-94.999999999999858
20
-12.857142857142918
10
-94.999999999999858
20
12.857142857142971
10
-87.199999999999847
20
12.857142857142971
10
-87.199999999999861
20
38.571428571428982
10
-94.999999999999858
20
38.571428571428982
10
-94.999999999999858
20
64.285714285713993
10
-87.199999999999847
20
64.285714285713993
10
-87.199999999999861
20
89.999999999999986
10
-61.171428571428415
20
89.999999999999986
10
-61.171428571428415
20
82.199999999999974
10
-35.142857142856862
20
82.199999999999974
10
-35.142857142856855
20
89.999999999999986
10
-9.114285714285657
20
89.999999999999986
10
-9.114285714285657
20
82.199999999999974
10
16.914285714285938
20
82.199999999999974
0
CIRCLE
5
111
100
AcDbEntity
8
0
100
AcDbCircle
10
-29.999999999999858
20
64.999999999999986
30
0
40
1.6000000000000001
210
0
220
-0
230
1
0
CIRCLE
5
112
100
AcDbEntity
8
0
100
AcDbCircle
10
-59.999999999999844
20
34.999999999999986
30
0
40
1.6000000000000001
210
0
220
-0
230
1
0
CIRCLE
5
113
100
AcDbEntity
8
0
100
AcDbCircle
10
-29.999999999999858
20
4.9999999999999822
30
0
40
1.6000000000000001
210
0
220
-0
230
1
0
CIRCLE
5
114
100
AcDbEntity
8
0
100
AcDbCircle
10
1.4210854715202004e-13
20
34.999999999999986
30
0
40
1.6000000000000001
210
0
220
-0
230
1
0
CIRCLE
5
115
100
AcDbEntity
8
0
100
AcDbCircle
10
91.099999999999852
20
-77.142857142856911
30
0
40
1.6000000000000001
210
0
220
-0
230
1
0
CIRCLE
5
116
100
AcDbEntity
8
0
100
AcDbCircle
10
-22.128571428571256
20
86.09999999999998
30
0
40
1.6000000000000001
210
0
220
-0
230
1
0
CIRCLE
5
117
100
AcDbEntity
8
0
100
AcDbCircle
10
-91.099999999999852
20
-1.7763568394002505e-14
30
0
40
1.6000000000000001
210
0
220
-0
230
1
0
CIRCLE
5
118
100
AcDbEntity
8
0
100
AcDbCircle
10
-91.099999999999852
20
51.428571428570962
30
0
40
1.6000000000000001
210
0
220
-0
230
1
0
CIRCLE
5
119
100
AcDbEntity
8
0
100
AcDbCircle
10
-91.099999999999852
20
-51.42857142857121
30
0
40
1.6000000000000001
210
0
220
-0
230
1
0
CIRCLE
5
120
100
AcDbEntity
8
0
100
AcDbCircle
10
31.100000000000158
20
28.928571428570979
30
0
40
1.6000000000000001
210
0
220
-0
230
1
0
CIRCLE
5
121
100
AcDbEntity
8
0
100
AcDbCircle
10
31.100000000000158
20
56.071428571428967
30
0
40
1.6000000000000001
210
0
220
-0
230
1
0
CIRCLE
5
122
100
AcDbEntity
8
0
100
AcDbCircle
10
78.085714285714843
20
86.09999999999998
30
0
40
1.6000000000000001
210
0
220
-0
230
1
0
CIRCLE
5
123
100
AcDbEntity
8
0
100
AcDbCircle
10
91.099999999999852
20
25.714285714285996
30
0
40
1.6000000000000001
210
0
220
-0
230
1
0
CIRCLE
5
124
100
AcDbEntity
8
0
100
AcDbCircle
10
91.099999999999852
20
-25.714285714285516
30
0
40
1.6000000000000001
210
0
220
-0
230
1
0
CIRCLE
5
125
100
AcDbEntity
8
0
100
AcDbCircle
10
-74.18571428571417
20
86.09999999999998
30
0
40
1.6000000000000001
210
0
220
-0
230
1
0
LWPOLYLINE
5
126
100
AcDbEntity
8
0
100
AcDbPolyline
90
4
70
1
43
0.0
10
27.200000000000152
20
22.142857142856993
10
35.000000000000149
20
22.142857142856993
10
35.000000000000149
20
8.5714285714285765
10
27.200000000000152
20
8.5714285714285765
0
LWPOLYLINE
5
127
100
AcDbEntity
8
0
100
AcDbPolyline
90
4
70
1
43
0.0
10
27.200000000000152
20
49.285714285714008
10
35.000000000000149
20
49.285714285714008
10
35.000000000000149
20
35.714285714285978
10
27.200000000000152
20
35.714285714285978
0
LWPOLYLINE
5
128
100
AcDbEntity
8
0
100
AcDbPolyline
90
4
70
1
43
0.0
10
27.200000000000152
20
76.428571428571971
10
35.000000000000149
20
76.428571428571971
10
35.000000000000149
20
62.857142857142975
10
27.200000000000152
20
62.857142857142975
0
CIRCLE
5
129
100
AcDbEntity
8
0
100
AcDbCircle
10
-29.999999999999858
20
34.999999999999986
30
0
40
26
210
0
220
-0
230
1
0
ENDSEC
0
SECTION
2
OBJECTS
0
DICTIONARY
5
C
100
AcDbDictionary
3
ACAD_GROUP
350
D
3
ACAD_MLINESTYLE
350
17
0
DICTIONARY
5
D
100
AcDbDictionary
0
DICTIONARY
5
1A
330
C
100
AcDbDictionary
0
DICTIONARY
5
17
100
AcDbDictionary
0
ENDSEC
0
EOF
