0
SECTION
2
HEADER
9
$INSUNITS
70
4
9
$ACADVER
1
AC1014
9
$HANDSEED
5
FFFF
0
ENDSEC
0
SECTION
2
TABLES
0
TABLE
2
VPORT
5
8
100
AcDbSymbolTable
0
ENDTAB
0
TABLE
2
LTYPE
5
5
100
AcDbSymbolTable
0
LTYPE
5
14
100
AcDbSymbolTableRecord
100
AcDbLinetypeTableRecord
2
BYBLOCK
70
0
0
LTYPE
5
15
100
AcDbSymbolTableRecord
100
AcDbLinetypeTableRecord
2
BYLAYER
70
0
0
ENDTAB
0
TABLE
2
LAYER
5
2
100
AcDbSymbolTable
70
2
0
LAYER
5
50
100
AcDbSymbolTableRecord
100
AcDbLayerTableRecord
2
0
70
0
6
CONTINUOUS
0
ENDTAB
0
TABLE
2
STYLE
5
3
100
AcDbSymbolTable
70
1
0
STYLE
5
11
100
AcDbSymbolTableRecord
100
AcDbTextStyleTableRecord
2
STANDARD
70
0
0
ENDTAB
0
TABLE
2
VIEW
5
6
100
AcDbSymbolTable
70
0
0
ENDTAB
0
TABLE
2
UCS
5
7
100
AcDbSymbolTable
70
0
0
ENDTAB
0
TABLE
2
APPID
5
9
100
AcDbSymbolTable
70
2
0
APPID
5
12
100
AcDbSymbolTableRecord
100
AcDbRegAppTableRecord
2
ACAD
70
0
0
ENDTAB
0
TABLE
2
DIMSTYLE
5
A
100
AcDbSymbolTable
70
1
0
ENDTAB
0
TABLE
2
BLOCK_RECORD
5
1
100
AcDbSymbolTable
70
1
0
BLOCK_RECORD
5
1F
100
AcDbSymbolTableRecord
100
AcDbBlockTableRecord
2
*MODEL_SPACE
0
BLOCK_RECORD
5
1B
100
AcDbSymbolTableRecord
100
AcDbBlockTableRecord
2
*PAPER_SPACE
0
ENDTAB
0
ENDSEC
0
SECTION
2
BLOCKS
0
BLOCK
5
20
100
AcDbEntity
100
AcDbBlockBegin
2
*MODEL_SPACE
0
ENDBLK
5
21
100
AcDbEntity
100
AcDbBlockEnd
0
BLOCK
5
1C
100
AcDbEntity
100
AcDbBlockBegin
2
*PAPER_SPACE
0
ENDBLK
5
1D
100
AcDbEntity
100
AcDbBlockEnd
0
ENDSEC
0
SECTION
2
ENTITIES
0
LWPOLYLINE
5
100
100
AcDbEntity
8
0
100
AcDbPolyline
90
4
70
1
43
0.0
10
-64.383129989346429
20
63.053469156175801
10
-64.383129989346429
20
23.905831704586895
42
0.99999999999999989
10
-60.383129989346422
20
23.905831704586895
10
-60.383129989346422
20
63.053469156175808
42
0.99999999999999989
0
LWPOLYLINE
5
101
100
AcDbEntity
8
0
100
AcDbPolyline
90
4
70
1
43
0.0
10
-55.451196567261135
20
63.053469156175801
10
-55.451196567261142
20
23.905831704586895
42
0.99999999999999989
10
-51.451196567261135
20
23.905831704586895
10
-51.451196567261157
20
63.053469156175808
42
0.99999999999999989
0
LWPOLYLINE
5
102
100
AcDbEntity
8
0
100
AcDbPolyline
90
4
70
1
43
0.0
10
-46.519263145175891
20
63.053469156175801
10
-46.519263145175898
20
23.905831704586895
42
0.99999999999999989
10
-42.519263145175934
20
23.905831704586895
10
-42.519263145175891
20
63.053469156175808
42
0.99999999999999989
0
LWPOLYLINE
5
103
100
AcDbEntity
8
0
100
AcDbPolyline
90
4
70
1
43
0.0
10
-37.587329723090633
20
63.053469156175801
10
-37.587329723090633
20
23.905831704586895
42
0.99999999999999989
10
-33.58732972309064
20
23.905831704586895
10
-33.58732972309064
20
63.053469156175709
42
0.99999999999999989
0
LWPOLYLINE
5
104
100
AcDbEntity
8
0
100
AcDbPolyline
90
4
70
1
43
0.0
10
-28.655396301005439
20
63.053469156175801
10
-28.655396301005446
20
23.905831704586895
42
0.99999999999999989
10
-24.65539630100535
20
23.905831704586895
10
-24.655396301005336
20
63.053469156175709
42
0.99999999999999989
0
LWPOLYLINE
5
105
100
AcDbEntity
8
0
100
AcDbPolyline
90
4
70
1
43
0.0
10
35.000000000000171
20
-22.142857142857011
10
27.200000000000166
20
-22.142857142857011
10
27.200000000000166
20
-8.5714285714285943
10
35.000000000000156
20
-8.5714285714285943
0
LWPOLYLINE
5
106
100
AcDbEntity
8
0
100
AcDbPolyline
90
4
70
1
43
0.0
10
35.000000000000171
20
-49.285714285714022
10
27.200000000000166
20
-49.285714285714022
10
27.200000000000166
20
-35.714285714285992
10
35.000000000000156
20
-35.714285714285992
0
LWPOLYLINE
5
107
100
AcDbEntity
8
0
100
AcDbPolyline
90
4
70
1
43
0.0
10
35.000000000000171
20
-76.428571428571985
10
27.200000000000166
20
-76.428571428571985
10
27.200000000000166
20
-62.857142857142989
10
35.000000000000156
20
-62.857142857142989
0
CIRCLE
5
108
100
AcDbEntity
8
0
100
AcDbCircle
10
91.099999999999852
20
77.142857142856911
30
0
40
1.6000000000000001
210
0
220
-0
230
1
0
CIRCLE
5
109
100
AcDbEntity
8
0
100
AcDbCircle
10
77.528571428571851
20
-85.757810473442007
30
0
40
1.6000000000000001
210
0
220
-0
230
1
0
CIRCLE
5
110
100
AcDbEntity
8
0
100
AcDbCircle
10
-77.52857142857134
20
-86.099999999999994
30
0
40
1.6000000000000001
210
0
220
-0
230
1
0
CIRCLE
5
111
100
AcDbEntity
8
0
100
AcDbCircle
10
31.100000000000172
20
-28.928571428570997
30
0
40
1.6000000000000001
210
0
220
-0
230
1
0
CIRCLE
5
112
100
AcDbEntity
8
0
100
AcDbCircle
10
91.099999999999852
20
25.714285714285509
30
0
40
1.6000000000000001
210
0
220
-0
230
1
0
CIRCLE
5
113
100
AcDbEntity
8
0
100
AcDbCircle
10
91.099999999999852
20
-25.714285714286014
30
0
40
1.6000000000000001
210
0
220
-0
230
1
0
CIRCLE
5
114
100
AcDbEntity
8
0
100
AcDbCircle
10
91.099999999999852
20
-77.142857142857011
30
0
40
1.6000000000000001
210
0
220
-0
230
1
0
CIRCLE
5
115
100
AcDbEntity
8
0
100
AcDbCircle
10
-27.142857142857043
20
-86.099999999999994
30
0
40
1.6000000000000001
210
0
220
-0
230
1
0
CIRCLE
5
116
100
AcDbEntity
8
0
100
AcDbCircle
10
31.100000000000172
20
-56.071428571428982
30
0
40
1.6000000000000001
210
0
220
-0
230
1
0
CIRCLE
5
117
100
AcDbEntity
8
0
100
AcDbCircle
10
-91.099999999999852
20
77.142857142856911
30
0
40
1.6000000000000001
210
0
220
-0
230
1
0
CIRCLE
5
118
100
AcDbEntity
8
0
100
AcDbCircle
10
-91.099999999999852
20
25.714285714285509
30
0
40
1.6000000000000001
210
0
220
-0
230
1
0
CIRCLE
5
119
100
AcDbEntity
8
0
100
AcDbCircle
10
-91.099999999999852
20
-25.714285714286014
30
0
40
1.6000000000000001
210
0
220
-0
230
1
0
CIRCLE
5
120
100
AcDbEntity
8
0
100
AcDbCircle
10
1.5987211554602254e-13
20
-35
30
0
40
1.6000000000000001
210
0
220
-0
230
1
0
CIRCLE
5
121
100
AcDbEntity
8
0
100
AcDbCircle
10
-29.99999999999984
20
-5
30
0
40
1.6000000000000001
210
0
220
-0
230
1
0
CIRCLE
5
122
100
AcDbEntity
8
0
100
AcDbCircle
10
-59.999999999999844
20
-35
30
0
40
1.6000000000000001
210
0
220
-0
230
1
0
CIRCLE
5
123
100
AcDbEntity
8
0
100
AcDbCircle
10
-29.99999999999984
20
-65
30
0
40
1.6000000000000001
210
0
220
-0
230
1
0
CIRCLE
5
124
100
AcDbEntity
8
0
100
AcDbCircle
10
-29.99999999999984
20
-35
30
0
40
26
210
0
220
-0
230
1
0
LWPOLYLINE
5
125
100
AcDbEntity
8
0
100
AcDbPolyline
90
52
70
1
43
0.0
10
40.714285714285765
20
-90
10
40.714285714285765
20
-82.199999999999989
10
67.857142857142861
20
-82.199999999999989
10
67.857142857142847
20
-90
10
94.999999999999858
20
-90
10
94.999999999999858
20
-64.285714285714008
10
87.199999999999847
20
-64.285714285714008
10
87.199999999999847
20
-38.571428571429003
10
94.999999999999858
20
-38.571428571429003
10
94.999999999999858
20
-12.857142857142989
10
87.199999999999847
20
-12.857142857142989
10
87.199999999999847
20
12.857142857142909
10
94.999999999999858
20
12.8571428571429
10
94.999999999999858
20
38.571428571428612
10
87.199999999999847
20
38.571428571428612
10
87.199999999999847
20
64.285714285714306
10
94.999999999999858
20
64.285714285714306
10
94.999999999999858
20
90.000000000000014
10
67.857142857142861
20
90
10
67.857142857142861
20
82.200000000000003
10
40.714285714285765
20
82.199999999999989
10
40.714285714285765
20
90.000000000000014
10
13.571428571428754
20
90
10
13.571428571428754
20
82.200000000000003
10
-13.571428571428443
20
82.199999999999989
10
-13.571428571428443
20
90.000000000000014
10
-40.714285714285538
20
90
10
-40.714285714285538
20
82.200000000000003
10
-67.857142857142748
20
82.199999999999989
10
-67.857142857142733
20
90.000000000000014
10
-94.999999999999844
20
90
10
-94.999999999999844
20
64.285714285714306
10
-87.199999999999847
20
64.285714285714306
10
-87.199999999999832
20
38.571428571428612
10
-94.999999999999844
20
38.571428571428612
10
-94.999999999999844
20
12.857142857142909
10
-87.199999999999847
20
12.8571428571429
10
-87.199999999999832
20
-12.857142857142989
10
-94.999999999999844
20
-12.857142857142989
10
-94.999999999999844
20
-38.571428571429003
10
-87.199999999999847
20
-38.571428571429003
10
-87.199999999999832
20
-64.285714285714008
10
-94.999999999999844
20
-64.285714285714008
10
-94.999999999999844
20
-90
10
-67.857142857142748
20
-90
10
-67.857142857142733
20
-82.199999999999989
10
-40.714285714285538
20
-82.199999999999989
10
-40.714285714285538
20
-90
10
-13.571428571428443
20
-90
10
-13.571428571428443
20
-82.199999999999989
10
13.571428571428754
20
-82.199999999999989
10
13.571428571428754
20
-90
0
ENDSEC
0
SECTION
2
OBJECTS
0
DICTIONARY
5
C
100
AcDbDictionary
3
ACAD_GROUP
350
D
3
ACAD_MLINESTYLE
350
17
0
DICTIONARY
5
D
100
AcDbDictionary
0
DICTIONARY
5
1A
330
C
100
AcDbDictionary
0
DICTIONARY
5
17
100
AcDbDictionary
0
ENDSEC
0
EOF
