0
SECTION
2
HEADER
9
$INSUNITS
70
4
9
$ACADVER
1
AC1014
9
$HANDSEED
5
FFFF
0
ENDSEC
0
SECTION
2
TABLES
0
TABLE
2
VPORT
5
8
100
AcDbSymbolTable
0
ENDTAB
0
TABLE
2
LTYPE
5
5
100
AcDbSymbolTable
0
LTYPE
5
14
100
AcDbSymbolTableRecord
100
AcDbLinetypeTableRecord
2
BYBLOCK
70
0
0
LTYPE
5
15
100
AcDbSymbolTableRecord
100
AcDbLinetypeTableRecord
2
BYLAYER
70
0
0
ENDTAB
0
TABLE
2
LAYER
5
2
100
AcDbSymbolTable
70
2
0
LAYER
5
50
100
AcDbSymbolTableRecord
100
AcDbLayerTableRecord
2
0
70
0
6
CONTINUOUS
0
ENDTAB
0
TABLE
2
STYLE
5
3
100
AcDbSymbolTable
70
1
0
STYLE
5
11
100
AcDbSymbolTableRecord
100
AcDbTextStyleTableRecord
2
STANDARD
70
0
0
ENDTAB
0
TABLE
2
VIEW
5
6
100
AcDbSymbolTable
70
0
0
ENDTAB
0
TABLE
2
UCS
5
7
100
AcDbSymbolTable
70
0
0
ENDTAB
0
TABLE
2
APPID
5
9
100
AcDbSymbolTable
70
2
0
APPID
5
12
100
AcDbSymbolTableRecord
100
AcDbRegAppTableRecord
2
ACAD
70
0
0
ENDTAB
0
TABLE
2
DIMSTYLE
5
A
100
AcDbSymbolTable
70
1
0
ENDTAB
0
TABLE
2
BLOCK_RECORD
5
1
100
AcDbSymbolTable
70
1
0
BLOCK_RECORD
5
1F
100
AcDbSymbolTableRecord
100
AcDbBlockTableRecord
2
*MODEL_SPACE
0
BLOCK_RECORD
5
1B
100
AcDbSymbolTableRecord
100
AcDbBlockTableRecord
2
*PAPER_SPACE
0
ENDTAB
0
ENDSEC
0
SECTION
2
BLOCKS
0
BLOCK
5
20
100
AcDbEntity
100
AcDbBlockBegin
2
*MODEL_SPACE
0
ENDBLK
5
21
100
AcDbEntity
100
AcDbBlockEnd
0
BLOCK
5
1C
100
AcDbEntity
100
AcDbBlockBegin
2
*PAPER_SPACE
0
ENDBLK
5
1D
100
AcDbEntity
100
AcDbBlockEnd
0
ENDSEC
0
SECTION
2
ENTITIES
0
LWPOLYLINE
5
100
100
AcDbEntity
8
0
100
AcDbPolyline
90
8
70
1
43
0.0
10
-54.999999999999851
20
40
42
0.41421356237309492
10
-69.999999999999844
20
25
10
-69.999999999999858
20
-25
42
0.41421356237309503
10
-54.999999999999851
20
-40
10
-4.9999999999998579
20
-39.999999999999993
42
0.41421356237309503
10
10.000000000000142
20
-25
10
10.000000000000142
20
25
42
0.41421356237309503
10
-4.9999999999998579
20
40
0
CIRCLE
5
101
100
AcDbEntity
8
0
100
AcDbCircle
10
-54.285714285714121
20
61.100000000000001
30
0
40
1.6000000000000001
210
-0
220
0
230
1
0
CIRCLE
5
102
100
AcDbEntity
8
0
100
AcDbCircle
10
-91.099999999999852
20
31.014285714285702
30
0
40
1.6000000000000001
210
-0
220
0
230
1
0
CIRCLE
5
103
100
AcDbEntity
8
0
100
AcDbCircle
10
-91.099999999999852
20
-38.814285714285703
30
0
40
1.6000000000000001
210
-0
220
0
230
1
0
CIRCLE
5
104
100
AcDbEntity
8
0
100
AcDbCircle
10
-48.157142857142652
20
-61.099999999999994
30
0
40
1.6000000000000001
210
-0
220
0
230
1
0
CIRCLE
5
105
100
AcDbEntity
8
0
100
AcDbCircle
10
91.099999999999852
20
32.685714285714297
30
0
40
1.6000000000000001
210
-0
220
0
230
1
0
CIRCLE
5
106
100
AcDbEntity
8
0
100
AcDbCircle
10
54.285714285714832
20
61.100000000000001
30
0
40
1.6000000000000001
210
-0
220
0
230
1
0
CIRCLE
5
107
100
AcDbEntity
8
0
100
AcDbCircle
10
31.100000000000154
20
49.028571428571396
30
0
40
1.6000000000000001
210
-0
220
0
230
1
0
CIRCLE
5
108
100
AcDbEntity
8
0
100
AcDbCircle
10
31.100000000000154
20
16.342857142857202
30
0
40
1.6000000000000001
210
-0
220
0
230
1
0
CIRCLE
5
109
100
AcDbEntity
8
0
100
AcDbCircle
10
31.100000000000154
20
-16.342857142857099
30
0
40
1.6000000000000001
210
-0
220
0
230
1
0
CIRCLE
5
110
100
AcDbEntity
8
0
100
AcDbCircle
10
91.099999999999852
20
-32.685714285714198
30
0
40
1.6000000000000001
210
-0
220
0
230
1
0
CIRCLE
5
111
100
AcDbEntity
8
0
100
AcDbCircle
10
31.100000000000154
20
-48.0730757117271
30
0
40
1.6000000000000001
210
-0
220
0
230
1
0
CIRCLE
5
112
100
AcDbEntity
8
0
100
AcDbCircle
10
55.957142857142863
20
-61.099999999999994
30
0
40
1.6000000000000001
210
-0
220
0
230
1
0
LWPOLYLINE
5
113
100
AcDbEntity
8
0
100
AcDbPolyline
90
52
70
1
43
0.0
10
-87.199999999999861
20
39.742857142857105
10
-87.199999999999861
20
57.200000000000003
10
-67.857142857142748
20
57.199999999999989
10
-67.857142857142762
20
65.000000000000014
10
-40.714285714285552
20
65.000000000000014
10
-40.714285714285552
20
57.199999999999996
10
-13.571428571428461
20
57.199999999999996
10
-13.571428571428461
20
65.000000000000014
10
13.571428571428736
20
65.000000000000014
10
13.571428571428736
20
57.199999999999996
10
40.714285714285751
20
57.200000000000003
10
40.714285714285751
20
65.000000000000014
10
67.857142857142833
20
65.000000000000014
10
67.857142857142833
20
57.199999999999996
10
87.199999999999847
20
57.200000000000003
10
87.199999999999847
20
40.85714285714289
10
94.999999999999858
20
40.857142857142904
10
94.999999999999858
20
24.514285714285698
10
87.199999999999847
20
24.514285714285702
10
87.199999999999832
20
8.1714285714286028
10
94.999999999999858
20
8.1714285714286099
10
94.999999999999858
20
-8.1714285714285815
10
87.199999999999847
20
-8.1714285714285797
10
87.199999999999832
20
-24.514285714285595
10
94.999999999999858
20
-24.514285714285592
10
94.999999999999858
20
-40.857142857142804
10
87.199999999999847
20
-40.857142857142804
10
87.199999999999818
20
-57.200000000000003
10
68.971428571428845
20
-57.199999999999996
10
68.971428571428845
20
-65
10
42.942857142857243
20
-65
10
42.942857142857264
20
-57.200000000000003
10
16.914285714285946
20
-57.199999999999996
10
16.914285714285946
20
-65
10
-9.114285714285657
20
-65
10
-9.1142857142856428
20
-57.200000000000003
10
-35.142857142856862
20
-57.199999999999996
10
-35.142857142856855
20
-65
10
-61.171428571428415
20
-65
10
-61.171428571428415
20
-57.199999999999996
10
-87.199999999999847
20
-57.199999999999996
10
-87.199999999999847
20
-47.542857142857102
10
-94.999999999999858
20
-47.542857142857102
10
-94.999999999999858
20
-30.085714285714296
10
-87.199999999999847
20
-30.085714285714307
10
-87.199999999999847
20
-12.628571428571449
10
-94.999999999999858
20
-12.628571428571449
10
-94.999999999999858
20
4.8285714285714594
10
-87.199999999999847
20
4.8285714285714612
10
-87.199999999999847
20
22.285714285714203
10
-94.999999999999858
20
22.285714285714203
10
-94.999999999999858
20
39.74285714285709
0
LWPOLYLINE
5
114
100
AcDbEntity
8
0
100
AcDbPolyline
90
4
70
1
43
0.0
10
27.200000000000149
20
-24.514285714285595
10
35.000000000000149
20
-24.514285714285595
10
35.000000000000149
20
-40.857142857142804
10
27.200000000000159
20
-40.857142857142804
0
LWPOLYLINE
5
115
100
AcDbEntity
8
0
100
AcDbPolyline
90
4
70
1
43
0.0
10
27.200000000000149
20
8.1714285714286046
10
35.000000000000149
20
8.1714285714286046
10
35.000000000000149
20
-8.1714285714285797
10
27.200000000000149
20
-8.1714285714285797
0
LWPOLYLINE
5
116
100
AcDbEntity
8
0
100
AcDbPolyline
90
4
70
1
43
0.0
10
27.200000000000149
20
40.857142857142897
10
35.000000000000149
20
40.857142857142897
10
35.000000000000149
20
24.514285714285702
10
27.200000000000138
20
24.514285714285698
0
ENDSEC
0
SECTION
2
OBJECTS
0
DICTIONARY
5
C
100
AcDbDictionary
3
ACAD_GROUP
350
D
3
ACAD_MLINESTYLE
350
17
0
DICTIONARY
5
D
100
AcDbDictionary
0
DICTIONARY
5
1A
330
C
100
AcDbDictionary
0
DICTIONARY
5
17
100
AcDbDictionary
0
ENDSEC
0
EOF
